<svg width="344" height="161" viewBox="0 0 344 161" fill="none" xmlns="http://www.w3.org/2000/svg">
<path fill-rule="evenodd" clip-rule="evenodd" d="M194.777 128.319H199.742C200.614 128.314 210.503 128.143 214.976 122.248C216.42 120.339 216.597 118.024 216.796 115.41C216.852 114.663 216.911 113.892 217.002 113.099C217.227 111.006 214.709 109.399 212.739 108.475C211.403 108.351 210.165 107.912 209.082 107.233C207.394 109.097 204.961 110.267 202.246 110.267C197.702 110.267 193.933 106.984 193.159 102.665C188.208 102.514 184.227 98.439 184.227 93.4421C184.227 88.3496 188.362 84.2152 193.454 84.2152C194.27 84.2152 195.072 84.3235 195.832 84.5275C197.998 79.9217 202.668 76.7284 208.084 76.7284C209.504 76.7284 210.869 76.9478 212.163 77.353C213.851 75.3005 216.411 73.9922 219.28 73.9922C222.305 73.9922 224.992 75.4524 226.68 77.7075C228.283 76.357 230.351 75.5424 232.615 75.5424C235.851 75.5424 238.706 77.2151 240.352 79.7431C241.112 79.3506 241.97 79.1283 242.884 79.1283C245.922 79.1283 248.398 81.6 248.398 84.6456V84.6469C248.398 84.7717 248.398 84.8979 248.384 85.0213C250.438 85.8245 251.901 87.8249 251.901 90.1615C251.901 91.007 251.704 91.8074 251.366 92.5235C253.462 93.6728 254.883 95.9025 254.883 98.4614C254.883 102.196 251.858 105.228 248.117 105.228C246.654 105.228 245.289 104.755 244.178 103.955C242.251 106.39 239.41 108.061 236.174 108.433C234.501 110.859 231.715 112.452 228.55 112.452C226.131 112.452 223.922 111.513 222.263 109.98C221.137 110.889 220.406 111.869 220.223 112.919C218.465 123.299 223.725 127.21 227.566 127.982C229.465 128.206 231.42 128.319 233.431 128.319C239.002 128.319 244.164 127.489 248.947 125.827C253.715 124.166 257.809 121.819 261.213 118.788C264.617 115.756 267.289 112.144 269.245 107.95C271.2 103.757 272.17 99.1255 272.17 94.0597C272.17 88.9926 271.214 84.3629 269.315 80.1693C267.402 75.9743 264.715 72.3618 261.269 69.3302C257.822 66.2986 253.757 63.9325 249.059 62.2289C244.375 60.5267 239.283 59.6755 233.811 59.6755C233.375 59.6657 232.25 59.7051 232.25 59.7051C224.781 60.1552 218.507 64.8693 217.381 66.0496C217.381 66.0496 212.965 62.5777 205.481 61.1597C198.124 59.7628 193.876 60.3367 193.3 60.4254C185.535 60.5309 179.036 63.3121 173.832 68.7703V22.9238H151.283V128.295H173.832V119.224C178.642 125.287 185.197 128.319 193.511 128.319C193.933 128.319 194.355 128.31 194.777 128.295V128.319ZM213.969 107.536C215.747 108.402 218.517 109.75 219.055 111.544C219.927 109.593 220.56 109.022 222.305 107.683C220.42 109.068 216.65 108.798 213.246 107.179C213.457 107.287 213.702 107.406 213.969 107.536ZM47.0401 102.196C46.2927 100.452 45.919 98.5836 45.919 96.4658C45.919 94.4725 46.2927 92.6038 47.0401 90.8597C47.7876 89.2401 48.7841 87.7452 50.1544 86.3748C51.4001 85.0044 52.8949 84.0078 54.7634 83.2603C56.5074 82.5128 58.3759 82.1391 60.4936 82.1391C62.4867 82.1391 64.3553 82.5128 66.2238 83.2603C67.9678 84.0078 69.4626 85.0044 70.8329 86.3748C72.0786 87.7452 73.0751 89.2401 73.9471 90.9843C74.6945 92.853 75.0682 94.7216 75.0682 96.7149C75.0682 98.7082 74.6945 100.577 73.9471 102.321C73.0751 104.065 72.0786 105.56 70.8329 106.93C69.4626 108.301 67.9678 109.297 66.2238 110.045C64.3553 110.792 62.4867 111.166 60.4936 111.166C58.3759 111.166 56.5074 110.792 54.7634 110.045C52.8949 109.297 51.4001 108.301 50.1544 106.93C48.7841 105.56 47.7876 104.065 47.0401 102.196ZM97.2475 64.698H74.3208V71.0515C69.0889 65.4454 62.4867 62.7047 54.5143 62.7047C49.7807 62.7047 45.4207 63.5767 41.5591 65.3208C37.6974 67.1895 34.3341 69.5566 31.469 72.6711C28.6039 75.7855 26.4862 79.2738 24.8668 83.3849C23.2474 87.6206 22.5 91.8563 22.5 96.4658C22.5 101.324 23.372 105.934 24.9914 110.045C26.6108 114.156 28.853 117.769 31.7181 120.883C34.5832 123.998 38.0712 126.365 41.9328 127.984C45.7944 129.729 50.1544 130.601 54.7634 130.601C62.985 130.601 69.4626 127.611 74.3208 121.506V128.295H97.2475V64.698ZM123.298 64.698H100.985V128.295H123.298V100.94C123.298 94.9604 124.668 90.351 127.284 87.2365C129.9 84.122 133.762 82.627 138.994 82.627C142.482 82.627 145.721 83.3745 148.71 84.8695V63.3172C147.838 63.1926 146.966 63.068 146.343 63.068H144.35C139.741 63.068 135.63 64.0647 132.142 66.0579C128.655 68.1758 125.665 71.0411 123.298 74.9031V64.698ZM273.531 64.4384H296.078V74.9031C298.444 71.0411 301.434 68.1758 304.922 66.0579C308.41 64.0647 312.521 63.068 317.13 63.068H319.123C319.746 63.068 320.618 63.1926 321.49 63.3172V84.8695C318.5 83.3745 315.261 82.627 311.773 82.627C306.541 82.627 302.68 84.122 300.064 87.2365C297.448 90.351 296.078 94.9604 296.078 100.94V128.295H273.531V64.4384Z" fill="#0E6655"/>
</svg>
