<?xml version="1.0" encoding="UTF-8" standalone="no"?>
<!DOCTYPE svg PUBLIC "-//W3C//DTD SVG 1.1//EN" "http://www.w3.org/Graphics/SVG/1.1/DTD/svg11.dtd">
<svg width="100%" height="100%" viewBox="0 0 580 164" version="1.1" xmlns="http://www.w3.org/2000/svg" xmlns:xlink="http://www.w3.org/1999/xlink" xml:space="preserve" xmlns:serif="http://www.serif.com/" style="fill-rule:evenodd;clip-rule:evenodd;stroke-linejoin:round;stroke-miterlimit:2;">
    <g id="Artboard1" transform="matrix(0.854197,0,0,0.645669,-190.486009,-288.614173)">
        <rect x="223" y="447" width="679" height="254" style="fill:none;"/>
        <g transform="matrix(1.17069,0,0,1.54878,-111.817241,-318.097561)">
            <path d="M448.93,531.43L448.93,620.58C448.93,640.388 432.848,656.47 413.04,656.47L323.89,656.47C304.082,656.47 288,640.388 288,620.58L288,531.43C288,511.622 304.082,495.54 323.89,495.54L413.04,495.54C432.848,495.54 448.93,511.622 448.93,531.43Z" style="fill:url(#_Linear1);"/>
        </g>
        <g transform="matrix(1.17069,0,0,1.54878,-111.817241,-318.097561)">
            <path d="M409.65,547.42C409.65,547.3 409.63,547.17 409.6,547.04C409.57,546.89 409.53,546.73 409.49,546.64C409.44,546.49 409.4,546.37 409.38,546.36C409.33,546.21 409.26,546.07 409.15,545.92C409.06,545.78 408.96,545.66 408.91,545.6C408.82,545.48 408.71,545.38 408.51,545.2C408.39,545.11 408.31,545.04 408.22,545L358.86,516.5L358.77,516.47C358.65,516.41 358.55,516.37 358.37,516.3C358.23,516.26 358.09,516.22 357.97,516.2C357.79,516.16 357.68,516.16 357.7,516.16C357.61,516.14 357.51,516.13 357.41,516.13C357.19,516.13 356.96,516.15 356.78,516.19C356.62,516.22 356.48,516.26 356.32,516.31C356.22,516.35 356.08,516.39 355.97,516.47L331.09,530.82C330.95,530.91 330.82,531.01 330.72,531.1C330.61,531.19 330.51,531.29 330.43,531.39C330.31,531.52 330.26,531.6 330.26,531.6C330.2,531.66 330.11,531.77 330,531.98L330,532.03C329.92,532.16 329.86,532.3 329.81,532.45C329.76,532.59 329.72,532.73 329.7,532.87C329.66,533.06 329.64,533.2 329.66,533.27L329.62,618.52C329.62,618.68 329.65,618.84 329.69,618.96C329.71,619.13 329.74,619.33 329.82,619.56C329.89,619.77 329.99,619.94 330.08,620.09C330.17,620.24 330.28,620.42 330.42,620.59C330.57,620.76 330.71,620.88 330.88,621.02C330.94,621.08 331.05,621.19 331.22,621.29L355.89,635.52L356,635.55C356.38,635.74 356.76,635.84 357.16,635.87L357.37,635.87C357.85,635.88 358.32,635.76 358.83,635.5C358.93,635.44 359.02,635.39 359.13,635.3C359.42,635.1 359.68,634.86 359.85,634.62C359.97,634.51 360.07,634.39 360.18,634.17L360.18,634.11C360.3,633.9 360.35,633.71 360.42,633.45C360.47,633.27 360.52,633.08 360.52,632.9L360.55,606.72C360.55,606.38 360.73,606.07 361.02,605.9L408.07,578.74C408.23,578.65 408.33,578.55 408.47,578.43C408.59,578.33 408.73,578.21 408.87,578.06C408.94,577.99 409.01,577.9 409.06,577.8C409.15,577.69 409.23,577.57 409.29,577.43C409.37,577.29 409.43,577.15 409.48,576.99C409.53,576.85 409.57,576.71 409.59,576.57C409.62,576.41 409.65,576.27 409.63,576.17L409.66,547.49L409.64,547.4L409.65,547.42ZM403.29,554.8L403.29,568.81C403.29,569.54 402.5,570 401.87,569.63L389.74,562.63C389.11,562.26 389.11,561.35 389.74,560.99L401.87,553.98C402.5,553.61 403.29,554.07 403.29,554.8ZM361.02,577.57L381.46,565.77C381.75,565.6 382.12,565.6 382.41,565.77L398.68,575.16C399.31,575.53 399.31,576.44 398.68,576.8L361.97,598C361.34,598.37 360.55,597.91 360.55,597.18L360.55,578.39C360.55,578.05 360.73,577.74 361.02,577.57ZM381.45,557.86L361.02,546.06C360.73,545.89 360.55,545.58 360.55,545.24L360.55,526.47C360.55,525.74 361.34,525.28 361.97,525.65L398.68,546.82C399.31,547.18 399.31,548.1 398.68,548.46L382.4,557.86C382.11,558.03 381.74,558.03 381.45,557.86ZM374.12,562.63L361.97,569.65C361.34,570.02 360.55,569.56 360.55,568.83L360.55,554.79C360.55,554.06 361.34,553.6 361.97,553.97L374.12,560.99C374.75,561.36 374.75,562.27 374.12,562.63ZM340.61,532.66L352.74,525.65C353.37,525.28 354.16,525.74 354.16,526.47L354.16,540.48C354.16,541.21 353.37,541.67 352.74,541.3L340.61,534.3C339.98,533.93 339.98,533.02 340.61,532.66ZM336,583.03L336,540.66C336,539.93 336.79,539.47 337.42,539.84L353.69,549.24C353.98,549.41 354.16,549.72 354.16,550.06L354.16,573.64C354.16,573.98 353.98,574.29 353.69,574.46L337.42,583.85C336.79,584.22 336,583.76 336,583.03ZM354.17,583.19L354.17,625.53C354.17,626.26 353.38,626.72 352.75,626.35L336.48,616.96C336.19,616.79 336.01,616.48 336.01,616.14L336.01,592.59C336.01,592.25 336.19,591.94 336.48,591.77L352.75,582.38C353.38,582.02 354.17,582.47 354.17,583.2L354.17,583.19Z" style="fill:white;fill-rule:nonzero;"/>
        </g>
        <g transform="matrix(1.17069,0,0,1.54878,-111.817241,-318.097561)">
            <path d="M497.2,607.23L497.2,547.05L520.66,547.05C525.24,547.05 529.13,547.92 532.33,549.65C535.53,551.38 537.98,553.78 539.66,556.84C541.34,559.9 542.18,563.4 542.18,567.36C542.18,571.32 541.33,574.85 539.62,577.88C537.91,580.91 535.43,583.28 532.19,584.99C528.95,586.7 525.01,587.55 520.38,587.55L505.28,587.55L505.28,577.62L518.4,577.62C520.93,577.62 523.01,577.18 524.64,576.31C526.27,575.44 527.48,574.23 528.27,572.7C529.06,571.17 529.46,569.39 529.46,567.37C529.46,565.35 529.06,563.58 528.27,562.06C527.48,560.54 526.26,559.35 524.62,558.51C522.98,557.67 520.89,557.24 518.36,557.24L509.52,557.24L509.52,607.23L497.2,607.23Z" style="fill:rgb(0,97,53);fill-rule:nonzero;"/>
            <path d="M550.51,607.22L550.51,562.07L562.22,562.07L562.22,569.94L562.7,569.94C563.53,567.14 564.93,565.03 566.88,563.6C568.83,562.17 571.07,561.46 573.6,561.46C574.22,561.46 574.89,561.49 575.62,561.56C576.35,561.63 576.98,561.73 577.52,561.86L577.52,572.68C576.98,572.49 576.2,572.34 575.18,572.24C574.16,572.14 573.19,572.08 572.27,572.08C570.44,572.08 568.78,572.48 567.3,573.27C565.82,574.06 564.67,575.17 563.85,576.58C563.03,577.99 562.62,579.64 562.62,581.53L562.62,607.21L550.51,607.21L550.51,607.22Z" style="fill:rgb(0,97,53);fill-rule:nonzero;"/>
            <path d="M602.36,608.11C597.84,608.11 593.92,607.13 590.61,605.18C587.3,603.23 584.75,600.51 582.96,597.02C581.17,593.53 580.27,589.48 580.27,584.84C580.27,580.2 581.17,576.07 582.96,572.58C584.75,569.09 587.3,566.37 590.61,564.42C593.92,562.47 597.84,561.49 602.36,561.49C606.88,561.49 610.83,562.47 614.13,564.42C617.43,566.37 619.97,569.09 621.76,572.58C623.55,576.07 624.45,580.15 624.45,584.84C624.45,589.53 623.55,593.53 621.76,597.02C619.97,600.51 617.43,603.23 614.13,605.18C610.83,607.13 606.91,608.11 602.36,608.11ZM602.36,598.57C604.51,598.57 606.32,597.97 607.77,596.77C609.22,595.57 610.31,593.93 611.04,591.84C611.77,589.75 612.13,587.4 612.13,584.79C612.13,582.18 611.77,579.76 611.04,577.68C610.31,575.61 609.22,573.98 607.77,572.79C606.32,571.6 604.51,571.01 602.36,571.01C600.21,571.01 598.41,571.6 596.97,572.79C595.53,573.97 594.45,575.6 593.72,577.68C592.99,579.76 592.63,582.12 592.63,584.79C592.63,587.46 592.99,589.75 593.72,591.84C594.45,593.93 595.53,595.57 596.97,596.77C598.41,597.97 600.21,598.57 602.36,598.57Z" style="fill:rgb(0,97,53);fill-rule:nonzero;"/>
            <path d="M644.12,607.22L627.48,562.07L640.36,562.07L647.95,585.49C648.87,588.42 649.67,591.39 650.35,594.37C651.04,597.36 651.74,600.45 652.47,603.66L649.89,603.66C650.59,600.46 651.28,597.36 651.95,594.37C652.62,591.38 653.42,588.42 654.33,585.49L661.84,562.07L674.56,562.07L657.88,607.22L644.11,607.22L644.12,607.22Z" style="fill:rgb(0,97,53);fill-rule:nonzero;"/>
            <rect x="680.99" y="562.07" width="12.11" height="45.15" style="fill:rgb(0,97,53);fill-rule:nonzero;"/>
            <path d="M721.33,608.11C717.7,608.11 714.48,607.59 711.68,606.56C708.88,605.52 706.59,604.02 704.81,602.04C703.03,600.06 701.89,597.67 701.38,594.87L712.65,592.93C713.24,595.03 714.28,596.6 715.76,597.65C717.24,598.7 719.22,599.22 721.7,599.22C724.02,599.22 725.84,598.78 727.17,597.91C728.5,597.04 729.17,595.92 729.17,594.58C729.17,593.4 728.69,592.43 727.74,591.67C726.78,590.92 725.32,590.34 723.36,589.93L715.57,588.31C711.21,587.42 707.95,585.91 705.8,583.77C703.65,581.63 702.57,578.88 702.57,575.51C702.57,572.6 703.36,570.11 704.95,568.02C706.54,565.93 708.75,564.32 711.57,563.19C714.4,562.06 717.72,561.49 721.54,561.49C725.09,561.49 728.18,561.98 730.79,562.96C733.4,563.94 735.51,565.34 737.13,567.14C738.75,568.94 739.82,571.07 740.36,573.52L729.62,575.42C729.16,573.89 728.28,572.63 726.97,571.64C725.66,570.66 723.91,570.17 721.7,570.17C719.71,570.17 718.04,570.59 716.69,571.42C715.34,572.25 714.67,573.37 714.67,574.77C714.67,575.9 715.11,576.86 715.98,577.64C716.85,578.42 718.36,579.03 720.48,579.46L728.6,581.08C732.96,581.97 736.21,583.42 738.33,585.42C740.45,587.42 741.52,590.04 741.52,593.27C741.52,596.23 740.66,598.82 738.94,601.04C737.22,603.26 734.84,604.99 731.81,606.23C728.78,607.47 725.29,608.09 721.33,608.09L721.33,608.11Z" style="fill:rgb(0,97,53);fill-rule:nonzero;"/>
            <rect x="749.72" y="562.07" width="12.11" height="45.15" style="fill:rgb(0,97,53);fill-rule:nonzero;"/>
            <path d="M792.32,608.11C787.8,608.11 783.88,607.13 780.57,605.18C777.26,603.23 774.71,600.51 772.92,597.02C771.13,593.53 770.23,589.48 770.23,584.84C770.23,580.2 771.13,576.07 772.92,572.58C774.71,569.09 777.26,566.37 780.57,564.42C783.88,562.47 787.8,561.49 792.32,561.49C796.84,561.49 800.79,562.47 804.09,564.42C807.39,566.37 809.93,569.09 811.72,572.58C813.51,576.07 814.41,580.15 814.41,584.84C814.41,589.53 813.51,593.53 811.72,597.02C809.93,600.51 807.39,603.23 804.09,605.18C800.79,607.13 796.87,608.11 792.32,608.11ZM792.32,598.57C794.47,598.57 796.28,597.97 797.73,596.77C799.18,595.57 800.27,593.93 801,591.84C801.73,589.75 802.09,587.4 802.09,584.79C802.09,582.18 801.73,579.76 801,577.68C800.27,575.61 799.18,573.98 797.73,572.79C796.28,571.6 794.47,571.01 792.32,571.01C790.17,571.01 788.37,571.6 786.93,572.79C785.49,573.98 784.41,575.6 783.68,577.68C782.95,579.76 782.59,582.12 782.59,584.79C782.59,587.46 782.95,589.75 783.68,591.84C784.41,593.93 785.49,595.57 786.93,596.77C788.37,597.97 790.17,598.57 792.32,598.57Z" style="fill:rgb(0,97,53);fill-rule:nonzero;"/>
            <path d="M834.96,581.09L834.96,607.22L822.85,607.22L822.85,562.07L834.28,562.07L834.48,573.34L833.75,573.34C834.93,569.57 836.73,566.66 839.14,564.6C841.55,562.54 844.67,561.51 848.49,561.51C851.61,561.51 854.34,562.19 856.67,563.55C859,564.91 860.8,566.86 862.08,569.41C863.36,571.96 864,574.99 864,578.52L864,607.23L851.89,607.23L851.89,580.62C851.89,577.82 851.17,575.63 849.73,574.04C848.29,572.45 846.29,571.66 843.73,571.66C842.03,571.66 840.52,572.03 839.19,572.77C837.86,573.51 836.82,574.58 836.08,575.98C835.34,577.38 834.97,579.09 834.97,581.11L834.96,581.09Z" style="fill:rgb(0,97,53);fill-rule:nonzero;"/>
            <rect x="680.99" y="543.89" width="12.11" height="12.12" style="fill:rgb(0,97,53);"/>
            <rect x="749.74" y="543.89" width="12.11" height="12.12" style="fill:rgb(0,97,53);"/>
        </g>
    </g>
    <defs>
        <linearGradient id="_Linear1" x1="0" y1="0" x2="1" y2="0" gradientUnits="userSpaceOnUse" gradientTransform="matrix(0,-160.92,160.92,0,368.46,656.46)"><stop offset="0" style="stop-color:rgb(0,174,77);stop-opacity:1"/><stop offset="1" style="stop-color:rgb(18,178,75);stop-opacity:1"/></linearGradient>
    </defs>
</svg>
